<?xml version="1.0" ?><svg style="fill: #02b930" version="1.1" viewBox="0 0 24 24" xml:space="preserve" xmlns="http://www.w3.org/2000/svg" xmlns:xlink="http://www.w3.org/1999/xlink"><style type="text/css">
	.st0{display:none;}
</style><g class="st0" id="grid"/><g id="icon"><path d="M23.703,6.321l-1.718-1.718c-0.382-0.382-1.049-0.384-1.432,0l-9.267,9.269l-3.711-3.711c-0.395-0.395-1.037-0.395-1.432,0   l-1.718,1.718c-0.191,0.191-0.297,0.445-0.297,0.716c0,0.271,0.105,0.525,0.297,0.717l6.043,6.043   c0.219,0.219,0.509,0.339,0.818,0.339s0.6-0.12,0.818-0.339l11.6-11.601C24.099,7.359,24.098,6.717,23.703,6.321z M11.396,18.647   c-0.052,0.053-0.169,0.053-0.222,0l-6.043-6.062l1.736-1.718l4.065,4.064c0.188,0.188,0.52,0.188,0.707,0l9.639-9.622l1.718,1.718   l0,0.019L11.396,18.647z"/><path d="M6.339,19.354c0.219,0.219,0.509,0.339,0.818,0.339s0.6-0.12,0.818-0.339c0.195-0.195,0.195-0.512,0-0.707   s-0.512-0.195-0.707,0c-0.052,0.053-0.169,0.053-0.222,0l-6.043-6.062l1.718-1.718c0.005-0.005,0.014-0.005,0.018,0   c0.195,0.195,0.512,0.195,0.707,0s0.195-0.512,0-0.707c-0.394-0.395-1.037-0.395-1.432,0l-1.717,1.718   C0.105,12.069,0,12.324,0,12.595c0,0.271,0.105,0.526,0.297,0.717L6.339,19.354z"/><path d="M10.652,11.792l6.479-6.481c0.005-0.004,0.013-0.007,0.019,0c0.195,0.195,0.512,0.195,0.707,0s0.195-0.512,0-0.707   c-0.395-0.395-1.037-0.395-1.432,0l-6.48,6.481c-0.195,0.195-0.195,0.512,0,0.707c0.098,0.098,0.226,0.146,0.354,0.146   S10.554,11.89,10.652,11.792z"/></g></svg>